# xmcd
#
# Track frame offsets:
#	150
#	10221
#	20519
#	38364
#	51952
#	64258
#	78839
#	92529
#	106202
#	119371
#	136067
#	149742
#	162864
#	178125
#	193813
#	203811
#	216160
#
# Disc length: 3031 seconds
#
# Revision: 0
# Processed by: cddbd v1.5PL3 Copyright (c) Steve Scherf et al.
# Submitted via: audiograbber 1.82.01
#
DISCID=ea0bd511
DTITLE=Rock the Joint - Rockin' the Joint
DYEAR=2000
DGENRE=Rock and Roll
TTITLE0=Rock the Joint
TTITLE1=Don't Knock Upon My Door
TTITLE2=I want a New Girl
TTITLE3=Matchbox
TTITLE4=Eat Your Heart Out Annie
TTITLE5=Forever's Much Too Long
TTITLE6=Mona Lisa
TTITLE7=R.O.C.K. Rock
TTITLE8=How Low Do You Feel
TTITLE9=Such A Night
TTITLE10=Little Pig
TTITLE11=Suntan Tatoo
TTITLE12=Please Mama Please
TTITLE13=Heartbreaker
TTITLE14=Flying Saucers Rock 'N' Roll
TTITLE15=Choo, Choo. Ch' Boogie
TTITLE16=Everybody Needs Rock 'N' Roll
EXTD=
EXTT0=
EXTT1=
EXTT2=
EXTT3=
EXTT4=
EXTT5=
EXTT6=
EXTT7=
EXTT8=
EXTT9=
EXTT10=
EXTT11=
EXTT12=
EXTT13=
EXTT14=
EXTT15=
EXTT16=
PLAYORDER=
